<?xml version="1.0" encoding="UTF-8"?>
<svg width="24px" height="24px" viewBox="0 0 24 24" version="1.1" xmlns="http://www.w3.org/2000/svg" xmlns:xlink="http://www.w3.org/1999/xlink">
    <!-- Generator: Sketch 50.2 (55047) - http://www.bohemiancoding.com/sketch -->
    <title>icn-movistar-green</title>
    <desc>Created with Sketch.</desc>
    <defs>
        <path d="M8.25592691,8.52354982 C8.95936255,8.51243564 9.29734364,8.87791309 9.59314582,9.16979891 C9.90798327,9.48067636 10.4965582,10.4057542 10.7935505,10.8916549 C11.134128,11.4489895 11.5990833,11.8398251 12.1388804,11.7831742 C12.5803669,11.7367745 12.867408,11.4595647 13.0628422,11.0095964 C13.2554651,10.5659945 13.5730058,9.69659564 13.969932,8.84985709 C14.4006022,7.93125382 15.2213847,7.45765418 15.9367178,7.50297491 C16.5828305,7.54397891 17.0867236,8.00743527 17.4003709,8.73062182 C17.7282873,9.48671891 17.9161527,10.3605415 17.9758582,11.3188549 C18.0268036,12.1381855 17.9974909,12.6765284 17.8844727,13.4774062 C17.8620764,13.6360287 17.8206545,13.8595015 17.7720982,14.0056069 C17.6488036,14.376156 17.3403382,14.6828247 16.9557491,14.6283316 C16.594836,14.5772924 16.4560745,14.2577825 16.4324967,13.9380578 C16.4204913,13.7752276 16.4498007,13.4822629 16.4660247,13.3365895 C16.5108,12.9351785 16.5682298,12.3888513 16.5641204,11.8932382 C16.5593618,11.3328829 16.4618062,10.9517585 16.0709367,10.8265876 C15.6500007,10.6917055 15.1501113,11.1333644 14.7752487,11.9584135 C14.44938,12.6759884 14.2468069,13.3765145 13.9497076,14.3141095 C13.5525655,15.5673302 12.7817498,15.9653954 11.7360065,16.0085579 C10.7103796,16.0510728 10.0716207,15.4326635 9.72552655,14.8550422 C9.34212,14.2151596 8.87208109,13.3773775 8.59791055,12.9046418 C8.36808218,12.5085185 8.12624945,12.1924615 7.83769418,12.2558029 C7.66605382,12.2934622 7.40778109,12.3790309 7.43481927,13.0327255 C7.45504473,13.52154 7.68736036,14.2074982 7.86181309,14.7761629 C7.91870182,14.9614375 8.01971782,15.2947593 8.054652,15.5226571 C8.12711455,15.9943142 7.92702982,16.2008463 7.75279309,16.2864158 C7.59294109,16.3648635 7.21267091,16.3833154 6.98424905,16.0952064 C6.90486382,15.9949617 6.80211731,15.8322394 6.73571051,15.6760994 C6.54330415,15.2231105 6.25756058,14.4009742 6.09641075,13.4485953 C5.92163347,12.4159353 6.00047792,11.5483713 6.20478131,10.7160916 C6.67352182,8.80593927 7.69990582,8.53229018 8.25592691,8.52354982 Z" id="path-1"></path>
    </defs>
    <g id="Icons" stroke="none" stroke-width="1" fill="none" fill-rule="evenodd">
        <g id="Icons-movistar" transform="translate(-40.000000, -312.000000)">
            <g id="→-icn-movistar-green" transform="translate(40.000000, 312.000000)">
                <g id="icn-movistar-green">
                    <path d="M12.0001593,-7.10542736e-14 C19.6002071,-7.10542736e-14 24,3.80720725 24,12 C24,20.1927927 19.6002071,24 12.0001593,24 C4.39979285,24 0,20.1927927 0,12 C0,3.80720725 4.39979285,-7.10542736e-14 12.0001593,-7.10542736e-14 Z" id="Fill-1-Copy" fill="#5BC500"></path>
                    <mask id="mask-2" fill="white">
                        <use xlink:href="#path-1"></use>
                    </mask>
                    <g id="Clip-2"></g>
                    <polygon id="Fill-1" fill="#FFFFFF" mask="url(#mask-2)" points="5.45454545 16.8818182 18.5454545 16.8818182 18.5454545 6.95454545 5.45454545 6.95454545"></polygon>
                </g>
            </g>
        </g>
    </g>
</svg>