<?xml version="1.0" encoding="UTF-8"?>
<svg width="296px" height="196px" viewBox="0 0 296 196" version="1.1" xmlns="http://www.w3.org/2000/svg" xmlns:xlink="http://www.w3.org/1999/xlink">
    <!-- Generator: Sketch 50.2 (55047) - http://www.bohemiancoding.com/sketch -->
    <title>plh_app_update</title>
    <desc>Created with Sketch.</desc>
    <defs></defs>
    <g id="Illustrations" stroke="none" stroke-width="1" fill="none" fill-rule="evenodd">
        <g id="Illustrations-movistar" transform="translate(-512.000000, -453.000000)">
            <g id="Group" transform="translate(512.000000, 453.000000)">
                <g id="Page-1" transform="translate(52.000000, 11.000000)">
                    <path d="M25.6255463,67.1579454 C25.7424146,61.6413552 35.6704244,60.2660546 44.9078488,60.4526339 C52.0648244,60.5968962 66.4396244,62.2780328 66.4396244,67.6590164 C66.4396244,73.954623 63.4338878,74.5576393 46.4232732,75.3453115 C45.3028829,75.3972459 25.3753902,78.9720656 25.6255463,67.1579454 Z" id="Fill-1" fill="#E5FCFC"></path>
                    <path d="M37.776758,80.2517683 C37.776758,80.2517683 8.52781171,81.909823 7.29151902,74.2687301 C6.11317756,67.6903694 27.005558,70.8920306 27.005558,70.8920306 C27.005558,70.8920306 26.8664751,65.0647956 44.7743678,67.7903913 C62.6832263,70.5159869 58.8700361,80.0305661 37.776758,80.2517683" id="Fill-3" fill="#AFF3F7"></path>
                    <path d="M173.75717,78.9402317 C173.664448,74.9518601 165.752175,73.9583738 158.390438,74.0930186 C152.687072,74.1968874 141.231082,75.4125377 141.231082,79.3018492 C141.231082,83.8538055 143.626399,84.2894776 157.183121,84.8588328 C158.07557,84.896341 173.956136,87.4805596 173.75717,78.9402317" id="Fill-5" fill="#E5FCFC"></path>
                    <path d="M164.073424,88.4057617 C164.073424,88.4057617 187.382371,89.6041005 188.367541,84.0807781 C189.307317,79.3249311 172.657932,81.6398601 172.657932,81.6398601 C172.657932,81.6398601 172.768039,77.4264393 158.496585,79.3970623 C144.225132,81.3676852 147.263707,88.2451497 164.073424,88.4057617" id="Fill-7" fill="#E5FCFC"></path>
                    <path d="M163.775748,10.5334557 C163.775748,7.56165246 164.23646,6.18058142 165.921875,6.18058142 C167.60729,6.18058142 168.068002,7.56165246 168.068002,10.5334557 C168.068002,13.505259 167.60729,14.8863301 165.921875,14.8863301 C164.23646,14.8863301 163.775748,13.505259 163.775748,10.5334557" id="Fill-9" fill="#FFD391"></path>
                    <path d="M163.775748,55.2438033 C163.775748,52.272 164.23646,50.890929 165.921875,50.890929 C167.60729,50.890929 168.068002,52.272 168.068002,55.2438033 C168.068002,58.2156066 167.60729,59.5966776 165.921875,59.5966776 C164.23646,59.5966776 163.775748,58.2156066 163.775748,55.2438033" id="Fill-11" fill="#FFD391"></path>
                    <path d="M179.43581,15.5701333 C181.5462,13.4687126 182.853,12.816647 184.043898,14.0034448 C185.235761,15.1902426 184.580912,16.4905268 182.470522,18.5919475 C180.360132,20.6933683 179.054298,21.3454339 177.862434,20.1586361 C176.670571,18.9728 177.32542,17.6715541 179.43581,15.5701333" id="Fill-13" fill="#FFBB41"></path>
                    <path d="M147.685882,47.1851191 C149.796272,45.0836984 151.103072,44.4316328 152.29397,45.6184306 C153.485833,46.8052284 152.830984,48.1055126 150.720594,50.2069333 C148.610204,52.3083541 147.30437,52.9604197 146.112506,51.7736219 C144.920643,50.5877858 145.575492,49.2865399 147.685882,47.1851191" id="Fill-15" fill="#FFBB41"></path>
                    <path d="M182.470812,47.1851191 C184.581202,49.2865399 185.236051,50.5877858 184.044187,51.7736219 C182.852324,52.9604197 181.54649,52.3083541 179.4361,50.2069333 C177.325709,48.1055126 176.67086,46.8052284 177.862724,45.6184306 C179.053621,44.4316328 180.360421,45.0836984 182.470812,47.1851191" id="Fill-17" fill="#FFBB41"></path>
                    <path d="M150.720787,15.5701333 C152.831178,17.6715541 153.486026,18.9728 152.294163,20.1586361 C151.1023,21.3454339 149.796465,20.6933683 147.686075,18.5919475 C145.575685,16.4905268 144.920836,15.1902426 146.1127,14.0034448 C147.303597,12.816647 148.610397,13.4687126 150.720787,15.5701333" id="Fill-19" fill="#FFBB41"></path>
                    <path d="M187.528891,30.7517202 C190.513379,30.7517202 191.900344,31.2104743 191.900344,32.8887257 C191.900344,34.566977 190.513379,35.0257311 187.528891,35.0257311 C184.544403,35.0257311 183.157437,34.566977 183.157437,32.8887257 C183.157437,31.2104743 184.544403,30.7517202 187.528891,30.7517202" id="Fill-21" fill="#FFD391"></path>
                    <path d="M142.627706,30.7517202 C145.612194,30.7517202 146.99916,31.2104743 146.99916,32.8887257 C146.99916,34.566977 145.612194,35.0257311 142.627706,35.0257311 C139.643219,35.0257311 138.256253,34.566977 138.256253,32.8887257 C138.256253,31.2104743 139.643219,30.7517202 142.627706,30.7517202" id="Fill-23" fill="#FFD391"></path>
                    <path d="M151.525537,32.8885333 C151.525537,23.6336262 156.494854,19.3326863 165.078395,19.3326863 C173.661937,19.3326863 178.631254,23.6336262 178.631254,32.8885333 C178.631254,42.1434404 173.661937,46.4443803 165.078395,46.4443803 C156.494854,46.4443803 151.525537,42.1434404 151.525537,32.8885333" id="Fill-25" fill="#FFB341"></path>
                    <path d="M165.078299,19.3328787 C164.675538,19.3328787 164.289196,19.3521137 163.902855,19.3703869 C163.787918,20.2580809 163.718377,21.190977 163.718377,22.1940809 C163.718377,31.448988 168.687694,35.7489661 177.271235,35.7489661 C177.673996,35.7489661 178.060338,35.7306929 178.446679,35.7114579 C178.561616,34.8247257 178.631157,33.8908678 178.631157,32.8887257 C178.631157,23.6338186 173.66184,19.3328787 165.078299,19.3328787" id="Fill-27" fill="#FFBB41"></path>
                    <path d="M80.0531385,14.3909333 C77.6858312,11.5749333 76.6755483,11.5085727 75.7386702,12.2895126 C74.8017922,13.0704525 74.6887873,14.0725945 77.0570605,16.8885945 C79.4243678,19.7045945 80.4346507,19.7709552 81.3715288,18.9900153 C82.3084068,18.2090754 82.4204459,17.2069333 80.0531385,14.3909333" id="Fill-29" fill="#3AD5F1"></path>
                    <path d="M109.916658,15.0910863 C108.85615,17.3723541 108.823311,18.6447475 110.506794,19.4208787 C112.190277,20.1960481 113.142609,19.3477858 114.203116,17.066518 C115.263623,14.7852503 115.296462,13.5128568 113.61298,12.7367257 C111.929497,11.9615563 110.977165,12.8098186 109.916658,15.0910863" id="Fill-31" fill="#FF7C9A"></path>
                    <path d="M96.0373405,6.52498361 C93.3986283,6.55479781 92.1874478,7.97337705 92.2154576,10.3998689 C92.2425015,12.8273224 93.4845893,14.2180109 96.1242673,14.1891585 C98.7629795,14.1593443 99.9731941,12.740765 99.9461502,10.3133115 C99.9191063,7.88681967 98.6760527,6.4951694 96.0373405,6.52498361" id="Fill-33" fill="#5AD73C"></path>
                    <path d="M101.099766,0.000673224044 C99.6954146,0.0160612022 99.0511902,0.77103388 99.065678,2.0626623 C99.0801659,3.35429071 99.7417756,4.09483716 101.146127,4.07848743 C102.550478,4.06309945 103.194702,3.30812678 103.179249,2.01649836 C103.164761,0.724869945 102.504117,-0.0147147541 101.099766,0.000673224044" id="Fill-35" fill="#94E37A"></path>
                    <path d="M135.897252,136.688044 L135.897252,125.030689 C135.897252,125.026842 135.82771,125.017224 135.874071,125.013377 C135.939749,125.006645 135.924296,124.996066 135.988042,124.986448 C136.193769,124.959519 136.3541,124.921049 136.549203,124.872 C136.585905,124.862383 136.607154,124.860459 136.643857,124.84988 C136.639993,124.848918 136.625505,124.846995 136.621642,124.846033 C137.718852,124.544044 138.625788,123.866011 139.318305,122.52918 C139.377222,123.393792 139.476705,124.165115 139.636071,124.840262 C139.965427,126.234798 140.463808,127.231169 141.366881,127.84765 C141.978266,128.265049 142.658227,128.50741 143.624081,128.58435 L143.624081,136.705355 C142.658227,136.655344 141.045252,136.626492 139.517271,136.626492 C138.171837,136.626492 136.863105,136.648612 135.897252,136.688044 M145.555788,136.765945 L145.555788,128.58435 C145.555788,128.583388 145.368413,128.583388 145.379037,128.583388 C148.87253,128.284284 149.750491,125.629858 149.750491,120.438339 C149.750491,114.905399 148.581808,112.263475 144.50011,112.263475 L144.474032,112.263475 C143.19814,112.263475 142.199447,112.584699 141.447047,113.099235 C141.228764,113.248306 141.029798,113.461814 140.850149,113.655126 C140.866569,113.030951 140.872364,112.39235 140.872364,111.699891 C140.872364,102.326689 139.303818,99.321224 136.612949,98.5806776 C136.617779,98.5797158 136.620676,98.5816393 136.62454,98.5806776 C136.587837,98.5710601 136.547271,98.5700984 136.510569,98.5614426 C136.315466,98.5123934 136.114569,98.4748852 135.908842,98.4469945 C135.84413,98.4383388 135.780383,98.4287213 135.714705,98.4219891 C135.451993,98.3950601 135.183486,98.3777486 134.903388,98.3777486 L134.903388,98.3777486 C134.437847,98.3777486 133.99452,98.4114098 133.576305,98.491235 C132.740842,98.651847 132.003896,98.9990383 131.377057,99.6424481 C131.06412,99.9636721 130.779193,100.359913 130.522276,100.84271 C129.497505,102.775825 128.938276,106.111169 128.938276,111.717202 C128.938276,117.324197 129.497505,120.659541 130.522276,122.592656 C130.779193,123.075454 131.06412,123.471694 131.377057,123.792918 C132.003896,124.436328 132.622042,124.783519 133.458471,124.944131 C133.6613,124.982601 133.965544,125.00953 133.965544,125.027803 L133.965544,136.742863 C130.10213,136.935213 127.0481,137.348765 127.0481,137.829639 C127.0481,138.495169 132.595964,139.033749 139.365632,139.033749 C146.136266,139.033749 151.864744,138.495169 151.864744,137.829639 C151.864744,137.368 149.419203,136.967913 145.555788,136.765945" id="Fill-37" fill="#C4F1F2"></path>
                    <path d="M38.401762,151.653237 C37.7585034,151.653237 37.2369424,151.133893 37.2369424,150.493368 L37.2369424,115.697303 C37.2369424,115.056778 37.7585034,114.537434 38.401762,114.537434 C39.0450205,114.537434 39.5665815,115.056778 39.5665815,115.697303 L39.5665815,150.493368 C39.5665815,151.133893 39.0450205,151.653237 38.401762,151.653237 Z" id="Fill-39" fill="#57A6A5"></path>
                    <path d="M22.2248722,151.653237 C21.5816137,151.653237 21.0600527,151.133893 21.0600527,150.493368 L21.0600527,115.697303 C21.0600527,115.056778 21.5816137,114.537434 22.2248722,114.537434 C22.8681307,114.537434 23.3896917,115.056778 23.3896917,115.697303 L23.3896917,150.493368 C23.3896917,151.133893 22.8681307,151.653237 22.2248722,151.653237 Z" id="Fill-41" fill="#57A6A5"></path>
                    <path d="M31.0217707,122.33635 C31.0217707,112.971803 29.1335268,108.619891 22.2247756,108.619891 C15.3160244,108.619891 13.4277805,112.971803 13.4277805,122.33635 C13.4277805,131.700896 15.3160244,136.052809 22.2247756,136.052809 C29.1335268,136.052809 31.0217707,131.700896 31.0217707,122.33635" id="Fill-43" fill="#5AD73C"></path>
                    <path d="M26.3623961,122.336254 C26.3623961,114.125805 24.9097522,109.770046 19.89504,108.8208 C20.6001132,108.687117 21.373762,108.619795 22.224679,108.619795 C29.1334302,108.619795 31.0216741,112.971707 31.0216741,122.336254 C31.0216741,131.7008 29.1334302,136.052713 22.224679,136.052713 C21.373762,136.052713 20.6001132,135.98539 19.89504,135.851707 C24.9087863,134.902461 26.3623961,130.546702 26.3623961,122.336254" id="Fill-45" fill="#42CA15"></path>
                    <path d="M28.2824166,107.457521 C28.2824166,126.436669 32.0666312,130.03457 38.3784849,130.03457 C44.6903385,130.03457 48.4745532,126.436669 48.4745532,107.457521 C48.4745532,88.4783738 44.6903385,84.8804721 38.3784849,84.8804721 C32.0666312,84.8804721 28.2824166,88.4783738 28.2824166,107.457521" id="Fill-47" fill="#5AD73C"></path>
                    <path d="M42.6506488,107.457521 C42.6506488,91.6117508 40.0109707,86.4914011 35.4666293,85.2315104 C36.3648732,84.9814557 37.336522,84.8804721 38.378678,84.8804721 C44.6905317,84.8804721 48.4747463,88.4783738 48.4747463,107.457521 C48.4747463,126.436669 44.6905317,130.03457 38.378678,130.03457 C37.336522,130.03457 36.3648732,129.933587 35.4666293,129.683532 C40.0109707,128.423642 42.6506488,123.303292 42.6506488,107.457521" id="Fill-49" fill="#42CA15"></path>
                    <path d="M162.583981,151.653237 C163.22724,151.653237 163.748801,151.133893 163.748801,150.493368 L163.748801,115.697303 C163.748801,115.056778 163.22724,114.537434 162.583981,114.537434 C161.940723,114.537434 161.419162,115.056778 161.419162,115.697303 L161.419162,150.493368 C161.419162,151.133893 161.940723,151.653237 162.583981,151.653237" id="Fill-51" fill="#57A6A5"></path>
                    <path d="M178.760871,151.653237 C179.40413,151.653237 179.925691,151.133893 179.925691,150.493368 L179.925691,115.697303 C179.925691,115.056778 179.40413,114.537434 178.760871,114.537434 C178.117613,114.537434 177.596052,115.056778 177.596052,115.697303 L177.596052,150.493368 C177.596052,151.133893 178.117613,151.653237 178.760871,151.653237" id="Fill-53" fill="#57A6A5"></path>
                    <path d="M169.963876,122.33635 C169.963876,112.971803 171.85212,108.619891 178.760871,108.619891 C185.669622,108.619891 187.557866,112.971803 187.557866,122.33635 C187.557866,131.700896 185.669622,136.052809 178.760871,136.052809 C171.85212,136.052809 169.963876,131.700896 169.963876,122.33635" id="Fill-55" fill="#5AD73C"></path>
                    <path d="M174.623347,122.336254 C174.623347,114.125805 176.075991,109.770046 181.090703,108.8208 C180.38563,108.687117 179.611981,108.619795 178.761064,108.619795 C171.852313,108.619795 169.964069,112.971707 169.964069,122.336254 C169.964069,131.7008 171.852313,136.052713 178.761064,136.052713 C179.611981,136.052713 180.38563,135.98539 181.090703,135.851707 C176.076957,134.902461 174.623347,130.546702 174.623347,122.336254" id="Fill-57" fill="#42CA15"></path>
                    <path d="M172.703327,107.457521 C172.703327,126.436669 168.919112,130.03457 162.607259,130.03457 C156.295405,130.03457 152.51119,126.436669 152.51119,107.457521 C152.51119,88.4783738 156.295405,84.8804721 162.607259,84.8804721 C168.919112,84.8804721 172.703327,88.4783738 172.703327,107.457521" id="Fill-59" fill="#5AD73C"></path>
                    <path d="M158.334998,107.457521 C158.334998,91.6117508 160.974676,86.4914011 165.519018,85.2315104 C164.620774,84.9814557 163.649125,84.8804721 162.606969,84.8804721 C156.295115,84.8804721 152.5109,88.4783738 152.5109,107.457521 C152.5109,126.436669 156.295115,130.03457 162.606969,130.03457 C163.649125,130.03457 164.620774,129.933587 165.519018,129.683532 C160.974676,128.423642 158.334998,123.303292 158.334998,107.457521" id="Fill-61" fill="#42CA15"></path>
                    <path d="M186.946384,175.738404 C192.34454,175.738404 195.311643,169.489923 191.928258,165.283235 C174.07735,143.085115 138.421897,127.942383 97.3422088,127.942383 C54.8658966,127.942383 18.1885698,144.132459 0.997340488,167.571235 C-1.48780098,170.959475 0.960638049,175.738404 5.16210146,175.738404 L186.946384,175.738404 Z" id="Fill-63" fill="#74EAF0"></path>
                    <path d="M196.21037,165.283043 C177.556838,143.084922 140.298067,127.94219 97.3716673,127.94219 C95.7490332,127.94219 94.1379893,127.970081 92.5327405,128.01336 C66.6459307,130.421578 41.4274917,145.859567 42.4648185,160.53489 C42.857921,166.107261 52.1668185,171.361294 63.5667893,175.738212 L191.004419,175.738212 C196.645004,175.738212 199.745394,169.489731 196.21037,165.283043" id="Fill-65" fill="#92F0F9"></path>
                    <polygon id="Fill-67" fill="#FFCCA5" points="77.5677073 153.505661 110.795971 153.505661 110.795971 124.340634 77.5677073 124.340634"></polygon>
                    <path d="M110.274796,64.7478033 L110.090318,64.5641093 C108.143157,62.625224 108.143157,59.453377 110.090318,57.5144918 L121.204396,46.4476503 C123.151557,44.508765 126.336942,44.508765 128.284103,46.4476503 L128.468581,46.6313443 C130.414777,48.5702295 130.414777,51.7420765 128.468581,53.6809617 L117.353538,64.7478033 C115.407342,66.6866885 112.221957,66.6866885 110.274796,64.7478033" id="Fill-69" fill="#FFD3A8"></path>
                    <path d="M92.9762605,125.716127 C114.488719,128.321504 123.064534,119.564783 128.239578,97.2127825 C72.6624263,117.351799 92.510719,123.598356 92.510719,123.598356 L92.9762605,125.716127 Z" id="Fill-70" fill="#FABB95"></path>
                    <path d="M95.2576068,124.708503 C97.1033532,122.329137 101.046934,116.323978 99.24948,110.356328 C98.4652068,110.358251 97.6683776,110.188984 96.95268,109.853333 C95.4092459,109.129137 94.094719,107.770186 93.3877141,106.217923 C93.223519,105.915934 93.0699483,105.608175 92.9308654,105.295607 C92.543558,104.420415 92.0606312,103.445202 91.8964361,102.482492 C91.8819483,102.394973 91.8829141,102.311301 91.8713239,102.224743 C88.4773141,100.320481 83.752358,98.6681967 77.2994898,97.4544699 C76.3085239,91.9542295 73.9924068,78.936 74.0126898,77.5501202 C74.0387678,75.787235 75.2431873,64.6232568 69.7223678,57.8746667 C66.0588849,53.396765 58.5831776,55.5972459 60.467558,60.777224 C62.8792946,66.941071 65.377958,81.8741421 65.377958,81.8741421 C65.377958,81.8741421 62.2118898,92.2600656 62.8986117,99.4462514 C63.9851971,110.815082 65.582719,112.830907 67.1039385,115.191038 C71.1837044,122.38588 76.9691678,123.939104 78.4401629,124.486339 L94.3709532,125.776044 C94.3709532,125.776044 94.6008263,125.526951 94.9620556,125.081661 L95.243119,125.113399 L95.2576068,124.708503 Z" id="Fill-71" fill="#FFD3A8"></path>
                    <path d="M76.9780537,95.1695475 C76.9780537,95.1695475 72.2048049,88.5075148 72.415361,86.957176 C72.6259171,85.4068372 73.4662098,36.5721268 73.4662098,36.5721268 L79.5617122,30.1938098 L111.088141,29.2089792 L118.616005,33.8599956 L121.177449,70.8728918 C121.177449,70.8728918 117.183644,94.0798863 115.502093,95.1695475 C113.820541,96.2592087 76.9780537,95.1695475 76.9780537,95.1695475" id="Fill-72" fill="#FFFFFF"></path>
                    <path d="M111.039849,88.5941683 L82.7499951,88.5941683 C81.3591659,88.5941683 80.2320146,87.4718077 80.2320146,86.0868896 L80.2320146,83.0641137 C80.2320146,81.6791956 81.3591659,80.556835 82.7499951,80.556835 L111.039849,80.556835 C112.430678,80.556835 113.557829,81.6791956 113.557829,83.0641137 L113.557829,86.0868896 C113.557829,87.4718077 112.430678,88.5941683 111.039849,88.5941683" id="Fill-73" fill="#D8ECED"></path>
                    <path d="M73.4663063,36.5124022 C73.4663063,36.5124022 73.448921,37.2462164 73.4189795,39.1697137 L118.511789,39.1697137 L118.511789,33.8589377 L111.036082,29.2088831 L79.5357307,30.1638995 L73.4663063,36.5124022 Z" id="Fill-74" fill="#00B3E5"></path>
                    <path d="M114.954454,93.9897705 L78.5862,93.9897705 C76.6071659,93.9897705 74.9681122,92.7048743 74.8782878,90.7361749 C74.6290976,85.2465137 74.6271659,78.3632787 74.6271659,69.5652022 C74.6271659,49.9464918 74.6271659,39.2037596 77.3624634,34.465224 C79.8195951,30.2075628 85.0854293,30.2402623 96.6215854,30.2402623 C108.158707,30.2402623 113.423576,30.256612 115.881673,34.5142732 C118.616005,39.251847 118.616005,50.0676721 118.616005,69.6863825 C118.616005,78.6460328 118.614073,85.4984918 118.351361,91.0314317 C118.2654,92.8347104 116.767361,93.9897705 114.954454,93.9897705 M96.6215854,26.7116066 C71.0506098,26.7116066 71.0506098,28.3263825 71.0506098,69.6950383 C71.0506098,110.949246 71.0506098,112.560175 96.6215854,112.560175 C122.193527,112.560175 122.193527,110.949246 122.193527,69.6950383 C122.193527,28.3263825 122.193527,26.7116066 96.6215854,26.7116066" id="Fill-75" fill="#496D73"></path>
                    <path d="M78.5862,93.9897705 C76.6071659,93.9897705 74.9681122,92.7048743 74.8782878,90.7361749 C74.6290976,85.2465137 74.6271659,78.3632787 74.6271659,69.5652022 C74.6271659,49.9464918 74.6271659,39.2037596 77.3624634,34.465224 C79.8195951,30.2075628 85.0854293,30.2402623 96.6215854,30.2402623 C107.189956,30.2402623 112.487663,30.264306 115.19302,33.5390601 L116.904512,30.1258142 C113.250688,26.9837814 107.072122,26.7116066 96.6215854,26.7116066 C71.0506098,26.7116066 71.0506098,28.3263825 71.0506098,69.6950383 C71.0506098,95.0803934 71.0535073,105.451891 77.0108927,109.677814 L84.8777707,93.9897705 L78.5862,93.9897705 Z" id="Fill-76" fill="#3E6063"></path>
                    <path d="M108.779655,83.7775388 L108.595177,83.5938448 C106.648016,81.6549596 106.648016,78.4831126 108.595177,76.5442273 L118.113664,67.0661945 C120.060825,65.1273093 123.246211,65.1273093 125.192406,67.0661945 L125.37785,67.2498885 C127.324045,69.1887738 127.324045,72.3606208 125.37785,74.299506 L115.858396,83.7775388 C113.912201,85.716424 110.726816,85.716424 108.779655,83.7775388" id="Fill-77" fill="#FFD3A8"></path>
                    <path d="M110.842621,95.0005683 L110.658143,94.8168743 C108.710982,92.8779891 108.710982,89.7061421 110.658143,87.7672568 L119.515021,78.9480219 C121.462182,77.0091366 124.647568,77.0091366 126.594729,78.9480219 L126.779207,79.1317158 C128.726368,81.0706011 128.726368,84.2424481 126.779207,86.1813333 L117.921363,95.0005683 C115.975168,96.9394536 112.789782,96.9394536 110.842621,95.0005683" id="Fill-78" fill="#FFC9A0"></path>
                    <path d="M111.79138,108.302706 L111.606901,108.119012 C109.65974,106.180127 108.973984,103.687274 111.606901,101.069395 L120.897448,91.8183344 C122.844609,89.8804109 126.029994,89.8804109 127.976189,91.8183344 L128.161633,92.0020284 C130.107828,93.9409137 130.107828,97.1127607 128.161633,99.0516459 L118.870121,108.302706 C116.278736,110.940783 113.73854,110.241591 111.79138,108.302706" id="Fill-79" fill="#FFD3A8"></path>
                    <path d="M129.452786,96.8033661 C128.392279,97.1880656 126.154396,97.974776 125.147977,98.3488962 L125.245528,99.2779454 C125.245528,99.2779454 126.613177,101.050448 125.969918,105.405246 C128.013664,101.984306 128.765099,99.7751694 129.452786,96.8033661" id="Fill-80" fill="#FFD3A8"></path>
                    <path d="M91.5765454,103.687755 C91.5765454,100.125438 93.4889356,98.4702689 96.793121,98.4702689 C100.09634,98.4702689 102.008731,100.125438 102.008731,103.687755 C102.008731,107.250072 100.09634,108.905242 96.793121,108.905242 C93.4889356,108.905242 91.5765454,107.250072 91.5765454,103.687755" id="Fill-81" fill="#FFFFFF"></path>
                    <path d="M93.9566985,103.687755 C93.9566985,101.750793 94.9969229,100.850597 96.7934107,100.850597 C98.5889327,100.850597 99.6291571,101.750793 99.6291571,103.687755 C99.6291571,105.624717 98.5889327,106.524914 96.7934107,106.524914 C94.9969229,106.524914 93.9566985,105.624717 93.9566985,103.687755" id="Fill-82" fill="#6A999D"></path>
                    <polygon id="Fill-83" fill="#00B3E5" points="74.3601073 174.776656 114.004537 174.776656 114.004537 150.869508 74.3601073 150.869508"></polygon>
                    <polygon id="Fill-84" fill="#00A4C7" points="74.3601073 156.363978 114.004537 156.363978 114.004537 150.868546 74.3601073 150.868546"></polygon>
                    <path d="M109.999431,59.2093814 C109.999431,51.7712175 103.943529,45.7420153 96.4745824,45.7420153 C89.0046702,45.7420153 82.9487678,51.7712175 82.9487678,59.2093814 C82.9487678,66.6475454 89.0046702,72.6767475 96.4745824,72.6767475 C103.943529,72.6767475 109.999431,66.6475454 109.999431,59.2093814" id="Fill-85" fill="#FF547D"></path>
                    <path d="M89.0289132,57.1019978 L92.0752156,56.2700852 C92.7638693,56.0825443 92.989879,55.222741 92.48184,54.7226317 L91.88784,54.1388503 C93.082601,52.7606645 94.8404546,51.9306754 96.7229034,51.9306754 C100.241508,51.9306754 103.104299,54.7812984 103.104299,58.2859104 C103.104299,58.765823 103.495469,59.1543694 103.97743,59.1543694 C104.459391,59.1543694 104.849596,58.765823 104.849596,58.2859104 C104.849596,53.8233967 101.204464,50.1927956 96.7229034,50.1927956 C94.3671863,50.1927956 92.1660059,51.2160962 90.646718,52.9164678 L90.2352644,52.5125333 C89.7272254,52.012424 88.8666498,52.2470907 88.6860351,52.934741 L87.8863083,55.9777137 C87.7056937,56.6653639 88.3402595,57.2895388 89.0289132,57.1019978" id="Fill-86" fill="#FFD6E3"></path>
                    <path d="M103.905088,61.2323235 L100.822083,62.0738536 C100.124737,62.2642798 99.8967951,63.1346623 100.410629,63.6405421 L101.01139,64.2320175 C99.8021415,65.626553 98.0220732,66.4661596 96.1174098,66.4661596 C92.5553415,66.4661596 89.6577805,63.5809137 89.6577805,60.0339847 C89.6577805,59.5483016 89.2627463,59.1549464 88.7749902,59.1549464 C88.2862683,59.1549464 87.8912341,59.5483016 87.8912341,60.0339847 C87.8912341,64.551318 91.581761,68.2261596 96.1174098,68.2261596 C98.5021024,68.2261596 100.730327,67.1903563 102.267966,65.4688262 L102.684249,65.8785311 C103.198083,66.3844109 104.069283,66.1458973 104.251829,65.450553 L105.061215,62.3700721 C105.244727,61.6747279 104.602434,61.0418973 103.905088,61.2323235" id="Fill-87" fill="#FFD6E3"></path>
                    <path d="M113.205486,150.86922 L75.1595444,150.86922 C73.8073493,150.86922 72.7120712,149.778597 72.7120712,148.432149 L72.7120712,139.015668 C72.7120712,137.670181 73.8073493,136.578597 75.1595444,136.578597 L113.205486,136.578597 C114.556715,136.578597 115.652959,137.670181 115.652959,139.015668 L115.652959,148.432149 C115.652959,149.778597 114.556715,150.86922 113.205486,150.86922" id="Fill-88" fill="#00B3E5"></path>
                    <path d="M113.027286,150.86922 L104.346193,150.86922 L104.346193,136.578597 L112.955813,136.578597 C114.445159,136.578597 115.652476,137.781744 115.652476,139.264761 L115.652476,148.255187 C115.652476,149.698772 114.477032,150.86922 113.027286,150.86922" id="Fill-89" fill="#00A4C7"></path>
                    <path d="M107.646032,143.724101 C107.646032,141.909281 106.168276,140.437805 104.34571,140.437805 C102.523144,140.437805 101.046354,141.909281 101.046354,143.724101 C101.046354,145.53892 102.523144,147.010396 104.34571,147.010396 C106.168276,147.010396 107.646032,145.53892 107.646032,143.724101" id="Fill-90" fill="#DDF1F2"></path>
                </g>
            </g>
        </g>
    </g>
</svg>